<?xml version="1.0" encoding="UTF-8" standalone="no"?>
<!DOCTYPE svg PUBLIC "-//W3C//DTD SVG 1.1//EN" "http://www.w3.org/Graphics/SVG/1.1/DTD/svg11.dtd">
<svg version="1.1" xmlns="http://www.w3.org/2000/svg" xmlns:xlink="http://www.w3.org/1999/xlink" preserveAspectRatio="xMidYMid meet" viewBox="-0.9999999999999893 -1.0000000000000266 643.9689316878662 643.9999999999999" width="639.97" height="640"><defs><path d="M200 320C200 386.13 253.88 440 320 440C386.13 440 440 386.13 440 320C440 253.88 386.13 200 320 200C253.88 200 200 253.88 200 320ZM509.63 241.5C534.75 166.2 548.71 124.37 551.5 116C557.13 99 541 82.87 524.13 88.62C515.76 91.42 473.92 105.37 398.63 130.5C363.08 59.4 343.33 19.9 339.38 12C331.38 -4 308.63 -4 300.63 12C296.68 19.89 276.97 59.35 241.5 130.37C166.13 105.25 124.25 91.29 115.88 88.5C98.88 82.88 82.75 99 88.5 115.87C91.29 124.24 105.25 166.08 130.38 241.38C59.35 276.92 19.89 296.67 12 300.63C-4 308.63 -4 331.38 12 339.38C19.89 343.32 59.35 363.03 130.38 398.5C105.25 473.87 91.29 515.75 88.5 524.13C82.88 541.13 99 557.25 115.88 551.5C124.24 548.71 166.08 534.75 241.38 509.63C276.85 580.65 296.56 620.11 300.5 628C308.5 644 331.25 644 339.25 628C343.19 620.11 362.9 580.65 398.38 509.63C473.68 534.75 515.51 548.71 523.88 551.5C540.88 557.13 557 541 551.25 524.13C548.46 515.76 534.5 473.92 509.38 398.63C580.4 363.15 619.86 343.44 627.75 339.5C644 331.37 644 308.63 628 300.62C612.22 292.74 572.76 273.03 509.63 241.5ZM206.88 433.13C144.5 370.75 144.5 269.25 206.88 206.88C269.25 144.5 370.75 144.5 433.13 206.88C495.5 269.25 495.5 370.75 433.13 433.13C370.75 495.5 269.25 495.5 206.88 433.13Z" id="bqSB2UALf"></path></defs><g><g><use xlink:href="#bqSB2UALf" opacity="1" fill="#151517" fill-opacity="1"></use><g><use xlink:href="#bqSB2UALf" opacity="1" fill-opacity="0" stroke="#000000" stroke-width="1" stroke-opacity="0"></use></g></g></g></svg>